<mxfile host="app.diagrams.net" agent="Mozilla/5.0 (Windows NT 10.0; Win64; x64) AppleWebKit/537.36 (KHTML, like Gecko) Chrome/130.0.0.0 Safari/537.36" version="24.8.0">
  <diagram name="Page-1" id="sGjQ7m2G3MN2MaqTW69j">
    <mxGraphModel dx="1877" dy="523" grid="1" gridSize="10" guides="1" tooltips="1" connect="1" arrows="1" fold="1" page="1" pageScale="1" pageWidth="827" pageHeight="1169" math="0" shadow="0">
      <root>
        <mxCell id="0" />
        <mxCell id="1" parent="0" />
        <mxCell id="QhEOJmIxH4zM1tV8FhGk-2" value="User" style="shape=umlActor;verticalLabelPosition=bottom;verticalAlign=top;html=1;" parent="1" vertex="1">
          <mxGeometry x="740" y="170" width="30" height="60" as="geometry" />
        </mxCell>
        <UserObject label="User Registration" tooltip="Registration" id="QhEOJmIxH4zM1tV8FhGk-8">
          <mxCell style="ellipse;whiteSpace=wrap;html=1;" parent="1" vertex="1">
            <mxGeometry x="150" y="30" width="120" height="80" as="geometry" />
          </mxCell>
        </UserObject>
        <mxCell id="cjHX63HQ0iyKOUZ8dX6u-1" value="User" style="shape=umlActor;verticalLabelPosition=bottom;verticalAlign=top;html=1;" parent="1" vertex="1">
          <mxGeometry x="-120" y="180" width="30" height="60" as="geometry" />
        </mxCell>
        <mxCell id="cjHX63HQ0iyKOUZ8dX6u-6" value="Sent Email/sms" style="ellipse;whiteSpace=wrap;html=1;" parent="1" vertex="1">
          <mxGeometry x="400" y="140" width="120" height="80" as="geometry" />
        </mxCell>
        <mxCell id="cjHX63HQ0iyKOUZ8dX6u-7" value="Ticket Booking Confirmation" style="ellipse;whiteSpace=wrap;html=1;" parent="1" vertex="1">
          <mxGeometry x="160" y="290" width="120" height="70" as="geometry" />
        </mxCell>
        <mxCell id="cjHX63HQ0iyKOUZ8dX6u-8" value="UserLogin" style="ellipse;whiteSpace=wrap;html=1;" parent="1" vertex="1">
          <mxGeometry x="160" y="160" width="120" height="80" as="geometry" />
        </mxCell>
        <mxCell id="cjHX63HQ0iyKOUZ8dX6u-19" value="" style="endArrow=none;html=1;rounded=0;" parent="1" target="QhEOJmIxH4zM1tV8FhGk-8" edge="1">
          <mxGeometry width="50" height="50" relative="1" as="geometry">
            <mxPoint x="-100" y="220" as="sourcePoint" />
            <mxPoint x="-50" y="170" as="targetPoint" />
          </mxGeometry>
        </mxCell>
        <mxCell id="cjHX63HQ0iyKOUZ8dX6u-26" value="&lt;b&gt;Send Notification&lt;/b&gt;" style="text;html=1;align=center;verticalAlign=middle;whiteSpace=wrap;rounded=0;" parent="1" vertex="1">
          <mxGeometry x="340" y="10" width="290" height="80" as="geometry" />
        </mxCell>
        <mxCell id="RNPqV13Z0pUv3PcIaKID-2" value="" style="endArrow=none;html=1;rounded=0;" edge="1" parent="1">
          <mxGeometry width="50" height="50" relative="1" as="geometry">
            <mxPoint x="-100" y="220" as="sourcePoint" />
            <mxPoint x="161" y="93" as="targetPoint" />
          </mxGeometry>
        </mxCell>
        <mxCell id="RNPqV13Z0pUv3PcIaKID-3" value="" style="endArrow=none;html=1;rounded=0;entryX=0;entryY=0.5;entryDx=0;entryDy=0;" edge="1" parent="1" target="cjHX63HQ0iyKOUZ8dX6u-8">
          <mxGeometry width="50" height="50" relative="1" as="geometry">
            <mxPoint x="-90" y="230" as="sourcePoint" />
            <mxPoint x="171" y="103" as="targetPoint" />
          </mxGeometry>
        </mxCell>
        <mxCell id="RNPqV13Z0pUv3PcIaKID-4" value="" style="endArrow=none;html=1;rounded=0;exitX=0.847;exitY=0.883;exitDx=0;exitDy=0;exitPerimeter=0;" edge="1" parent="1" source="cjHX63HQ0iyKOUZ8dX6u-1">
          <mxGeometry width="50" height="50" relative="1" as="geometry">
            <mxPoint x="-100" y="447" as="sourcePoint" />
            <mxPoint x="161" y="320" as="targetPoint" />
          </mxGeometry>
        </mxCell>
        <mxCell id="RNPqV13Z0pUv3PcIaKID-5" value="" style="endArrow=none;html=1;rounded=0;exitX=0.972;exitY=0.692;exitDx=0;exitDy=0;exitPerimeter=0;entryX=1;entryY=0.5;entryDx=0;entryDy=0;" edge="1" parent="1" source="cjHX63HQ0iyKOUZ8dX6u-8" target="QhEOJmIxH4zM1tV8FhGk-8">
          <mxGeometry width="50" height="50" relative="1" as="geometry">
            <mxPoint x="260" y="240" as="sourcePoint" />
            <mxPoint x="310" y="190" as="targetPoint" />
            <Array as="points">
              <mxPoint x="400" y="180" />
            </Array>
          </mxGeometry>
        </mxCell>
        <mxCell id="RNPqV13Z0pUv3PcIaKID-6" value="" style="endArrow=none;html=1;rounded=0;entryX=0.333;entryY=1;entryDx=0;entryDy=0;entryPerimeter=0;exitX=1.012;exitY=0.363;exitDx=0;exitDy=0;exitPerimeter=0;" edge="1" parent="1" source="cjHX63HQ0iyKOUZ8dX6u-7" target="cjHX63HQ0iyKOUZ8dX6u-6">
          <mxGeometry width="50" height="50" relative="1" as="geometry">
            <mxPoint x="260" y="240" as="sourcePoint" />
            <mxPoint x="310" y="190" as="targetPoint" />
          </mxGeometry>
        </mxCell>
        <mxCell id="RNPqV13Z0pUv3PcIaKID-8" style="edgeStyle=orthogonalEdgeStyle;rounded=0;orthogonalLoop=1;jettySize=auto;html=1;exitX=1;exitY=0.5;exitDx=0;exitDy=0;entryX=0.5;entryY=0.5;entryDx=0;entryDy=0;entryPerimeter=0;" edge="1" parent="1" source="cjHX63HQ0iyKOUZ8dX6u-6" target="QhEOJmIxH4zM1tV8FhGk-2">
          <mxGeometry relative="1" as="geometry" />
        </mxCell>
      </root>
    </mxGraphModel>
  </diagram>
</mxfile>
